Coordinates
nRows=14
nColumns=24

# SIMM Motion File Header:
name Coordinates
datacolumns 24
datarows 14
otherdata 1
range 0.88567000000000007000 0.89866999999999997000
endheader
time	pelvis_tx	pelvis_ty	pelvis_tz	pelvis_tilt	pelvis_list	pelvis_rotation	hip_flexion_r	hip_adduction_r	hip_rotation_r	knee_angle_r	ankle_angle_r	subtalar_angle_r	mtp_angle_r	hip_flexion_l	hip_adduction_l	hip_rotation_l	knee_angle_l	ankle_angle_l	subtalar_angle_l	mtp_angle_l	lumbar_extension	lumbar_bending	lumbar_rotation
      0.88567000000000007000	      1.17249677981438660000	      0.87707249789554764000	     -0.18934380154038113000	     -1.32280627435879940000	      0.63755024525390613000	     -4.71109348423469410000	    -13.93809444058969200000	      0.05549061345834946400	     -3.80972035963300380000	    -16.43143290811611500000	      9.29852233941068820000	      0.00000000000015326664	      0.00000000000008325426	     22.53401078853151400000	      1.45760790619217380000	      4.35210896329063780000	    -16.99135741837515200000	     -3.15932384917827180000	      0.00000000000010716183	     -0.00000000000074064346	     -7.28663504592164380000	     -0.35087787781005730000	     10.16870486792429200000
      0.88667000000000007000	      1.17346994409755200000	      0.87711845303775948000	     -0.18948210958921263000	     -1.34049903526747460000	      0.65103660864631607000	     -4.70347165182566410000	    -13.92665170266242000000	      0.01275619092994746200	     -3.81470354142729830000	    -16.51662646110547100000	      9.16184704220015430000	      0.00000000000015379042	      0.00000000000008197973	     22.51507746915422500000	      1.49191101494144120000	      4.33701594296820940000	    -17.03896252392656800000	     -3.12214504003443860000	      0.00000000000010715676	     -0.00000000000074192726	     -7.23943065783520190000	     -0.36139750896432637000	     10.19972704342706900000
      0.88767000000000007000	      1.17444310838071740000	      0.87716440817997132000	     -0.18962041763804413000	     -1.35819179617614980000	      0.66452297203872612000	     -4.69584981941663320000	    -13.91520896473515000000	     -0.02997823159845454000	     -3.81968672322159230000	    -16.60182001409482700000	      9.02517174498962230000	      0.00000000000015431419	      0.00000000000008070520	     22.49614414977693900000	      1.52621412369070850000	      4.32192292264578090000	    -17.08656762947798300000	     -3.08496623089060500000	      0.00000000000010715170	     -0.00000000000074321106	     -7.19222626974875910000	     -0.37191714011859545000	     10.23074921892984400000
      0.88867000000000007000	      1.17541649208385300000	      0.87721352209714554000	     -0.18975894115839231000	     -1.37477860194022730000	      0.67759005883066814000	     -4.68805657574374820000	    -13.90280555560224800000	     -0.07269638124699368000	     -3.82564735621313280000	    -16.69005727075898400000	      8.88549412638012730000	      0.00000000000015484314	      0.00000000000007940886	     22.47529636205071300000	      1.56005252209046570000	      4.30526889122065890000	    -17.13343539961898900000	     -3.04458661226257330000	      0.00000000000010714049	     -0.00000000000074445375	     -7.14616164741404170000	     -0.38203164052775879000	     10.26123967652374000000
      0.88967000000000007000	      1.17638994892697850000	      0.87726368893930728000	     -0.18989753650257943000	     -1.39099675598943960000	      0.69051738675578767000	     -4.68020619498291170000	    -13.89008192273413500000	     -0.11540910660224518000	     -3.83193380627042180000	    -16.77930909531474400000	      8.74481573397097910000	      0.00000000000015537382	      0.00000000000007810525	     22.45381041820817500000	      1.59373601704038630000	      4.28809452276130720000	    -17.18005739128986100000	     -3.00314005713980990000	      0.00000000000010712723	     -0.00000000000074568272	     -7.10047694699656430000	     -0.39201109735522038000	     10.29155289481467500000
      0.89067000000000007000	      1.17736337343400480000	      0.87731481152404966000	     -0.19003620855142403000	     -1.40688079784250110000	      0.70332365089090854000	     -4.67228157363688630000	    -13.87701999309512700000	     -0.15811227870073155000	     -3.83854573216612850000	    -16.86957635421217100000	      8.60334565265640090000	      0.00000000000015590829	      0.00000000000007678638	     22.43178217512581400000	      1.62728734677239810000	      4.27048238358934020000	    -17.22652843123270800000	     -2.96096212138098020000	      0.00000000000010710800	     -0.00000000000074689041	     -7.05515010033996590000	     -0.40187467650158271000	     10.32166600385933100000
      0.89167000000000007000	      1.17833670093273390000	      0.87736880133653372000	     -0.19017511071424109000	     -1.42176250310711390000	      0.71576672365603411000	     -4.66413423053529730000	    -13.86294317314344000000	     -0.20078679102892247000	     -3.84613408557708600000	    -16.96288991613459600000	      8.45950050462553980000	      0.00000000000015645411	      0.00000000000007542173	     22.40812703432400700000	      1.66044218085068460000	      4.25155693227953350000	    -17.27254661599148400000	     -2.91659004371395620000	      0.00000000000010707085	     -0.00000000000074803424	     -7.01089681496599940000	     -0.41139062260464837000	     10.35117878516515200000
      0.89267000000000007000	      1.17930989567167230000	      0.87742373702864196000	     -0.19031409969622132000	     -1.43631869723087680000	      0.72808188130442864000	     -4.65589201663334680000	    -13.84846903864541200000	     -0.24343566356814053000	     -3.85408391185384680000	    -17.05730940829190300000	      8.31481226617358080000	      0.00000000000015699922	      0.00000000000007405696	     22.38398004578630600000	      1.69345882633005900000	      4.23223324080804190000	    -17.31850640291378300000	     -2.87164413917710530000	      0.00000000000010702613	     -0.00000000000074917760	     -6.96700608367008020000	     -0.42078255854555235000	     10.38045660185986600000
      0.89367000000000008000	      1.18028269213123930000	      0.87748151035962241000	     -0.19045334913569112000	     -1.44989835793208790000	      0.74001329360262891000	     -4.64736519033031570000	    -13.83280296050834800000	     -0.28600761674043967000	     -3.86311815672802130000	    -17.15504669115387400000	      8.16759475645831400000	      0.00000000000015754221	      0.00000000000007269181	     22.35835751404090700000	      1.72606090601269570000	      4.21171482885148940000	    -17.36429099632666600000	     -2.82497675403076620000	      0.00000000000010695873	     -0.00000000000075031957	     -6.92420301460830690000	     -0.42980246399997052000	     10.40902952472126100000
      0.89467000000000008000	      1.18125548859080600000	      0.87753928369060286000	     -0.19059259857516092000	     -1.46347801863329870000	      0.75194470590082929000	     -4.63883836402728370000	    -13.81713688237128300000	     -0.32857956991273879000	     -3.87215240160219530000	    -17.25278397401584800000	      8.02037724674304900000	      0.00000000000015808519	      0.00000000000007132666	     22.33273498229551300000	      1.75866298569533220000	      4.19119641689493690000	    -17.41007558973954900000	     -2.77830936888442670000	      0.00000000000010689132	     -0.00000000000075146153	     -6.88139994554653360000	     -0.43882236945438874000	     10.43760244758265700000
      0.89567000000000008000	      1.18222751145622530000	      0.87760021511875508000	     -0.19073208020546262000	     -1.47595721635896030000	      0.76339475811301827000	     -4.62998524363486300000	    -13.79998670699860200000	     -0.37098912259132760000	     -3.88249267037100500000	    -17.35453527706787800000	      7.87025264983874880000	      0.00000000000015862035	      0.00000000000006998083	     22.30552951753908900000	      1.79072912421637790000	      4.16944513124913470000	    -17.45583061393151100000	     -2.72969720097252950000	      0.00000000000010682698	     -0.00000000000075268872	     -6.83987631575461920000	     -0.44738080173632350000	     10.46534513272421700000
      0.89667000000000008000	      1.18319927645692860000	      0.87766219924596456000	     -0.19087163923270828000	     -1.48806959309277160000	      0.77468435696320326000	     -4.62102335854597880000	    -13.78234183254738300000	     -0.41334454177201291000	     -3.89326828043802650000	    -17.45762458684993100000	      7.71915902387143490000	      0.00000000000015915289	      0.00000000000006864144	     22.27779640844565600000	      1.82261661568355950000	      4.14728288770691660000	    -17.50157578171649700000	     -2.68043677213877850000	      0.00000000000010676366	     -0.00000000000075394433	     -6.79877916571932590000	     -0.45578540962743036000	     10.49281107195916400000
      0.89766999999999997000	      1.18417067726613360000	      0.87772517909267989000	     -0.19101125300410929000	     -1.49984593487665400000	      0.78579896657129389000	     -4.61194897194604360000	    -13.76411661017693400000	     -0.45561989669530251000	     -3.90451195097987340000	    -17.56214811473897100000	      7.56711565244864200000	      0.00000000000015968357	      0.00000000000006731059	     22.24958573069690700000	      1.85430107126098260000	      4.12474303306457730000	    -17.54734587053887700000	     -2.63035275556399780000	      0.00000000000010671703	     -0.00000000000075520968	     -6.75808924434634230000	     -0.46402224358580829000	     10.51998476313368900000
      0.89866999999999997000	      1.18514098550084370000	      0.87779114609791298000	     -0.19115103100797642000	     -1.51061417181075460000	      0.79638860845310655000	     -4.60253708081295180000	    -13.74415034404879200000	     -0.49765505884642364000	     -3.91715980294620090000	    -17.67097429694901600000	      7.41222304465934290000	      0.00000000000016020869	      0.00000000000006600533	     22.21994234698220100000	      1.88537641916914360000	      4.10107034512186260000	    -17.59319072247346600000	     -2.57779797576610600000	      0.00000000000010672046	     -0.00000000000075650428	     -6.71862100896026960000	     -0.47175575574600320000	     10.54628171012695100000
